<svg width="39" height="39" viewBox="0 0 39 39" fill="none" xmlns="http://www.w3.org/2000/svg">
<path d="M12.0293 0.867188H2.27344C1.49561 0.867188 0.867188 1.49561 0.867188 2.27344V12.1172C0.867188 12.5039 1.18359 12.8203 1.57031 12.8203H3.67969C4.06641 12.8203 4.38281 12.5039 4.38281 12.1172V4.38281H12.0293C12.416 4.38281 12.7324 4.06641 12.7324 3.67969V1.57031C12.7324 1.18359 12.416 0.867188 12.0293 0.867188ZM37.4297 26.1797H35.3203C34.9336 26.1797 34.6172 26.4961 34.6172 26.8828V34.6172H26.9707C26.584 34.6172 26.2676 34.9336 26.2676 35.3203V37.4297C26.2676 37.8164 26.584 38.1328 26.9707 38.1328H36.7266C37.5044 38.1328 38.1328 37.5044 38.1328 36.7266V26.8828C38.1328 26.4961 37.8164 26.1797 37.4297 26.1797ZM12.0293 34.6172H4.38281V26.8828C4.38281 26.4961 4.06641 26.1797 3.67969 26.1797H1.57031C1.18359 26.1797 0.867188 26.4961 0.867188 26.8828V36.7266C0.867188 37.5044 1.49561 38.1328 2.27344 38.1328H12.0293C12.416 38.1328 12.7324 37.8164 12.7324 37.4297V35.3203C12.7324 34.9336 12.416 34.6172 12.0293 34.6172ZM36.7266 0.867188H26.9707C26.584 0.867188 26.2676 1.18359 26.2676 1.57031V3.67969C26.2676 4.06641 26.584 4.38281 26.9707 4.38281H34.6172V12.1172C34.6172 12.5039 34.9336 12.8203 35.3203 12.8203H37.4297C37.8164 12.8203 38.1328 12.5039 38.1328 12.1172V2.27344C38.1328 1.49561 37.5044 0.867188 36.7266 0.867188Z" fill="#D9D9D9"/>
</svg>
