<svg width="140" height="26" viewBox="0 0 140 26" fill="none" xmlns="http://www.w3.org/2000/svg">
<path d="M7.67 25V2.934H0.87V0.146H17.53V2.934H10.73V25H7.67ZM29.5867 25.34C28.1134 25.34 26.8214 25.0453 25.7107 24.456C24.6227 23.8667 23.7727 23.0393 23.1607 21.974C22.5714 20.886 22.2767 19.628 22.2767 18.2V13.1C22.2767 11.6493 22.5714 10.3913 23.1607 9.326C23.7727 8.26067 24.6227 7.43333 25.7107 6.844C26.8214 6.25467 28.1134 5.96 29.5867 5.96C31.0601 5.96 32.3407 6.25467 33.4287 6.844C34.5394 7.43333 35.3894 8.26067 35.9787 9.326C36.5907 10.3913 36.8967 11.6493 36.8967 13.1V16.398H25.2687V18.2C25.2687 19.6733 25.6427 20.8067 26.3907 21.6C27.1387 22.3707 28.2041 22.756 29.5867 22.756C30.7654 22.756 31.7174 22.552 32.4427 22.144C33.1681 21.7133 33.6101 21.0787 33.7687 20.24H36.8287C36.6247 21.804 35.8541 23.0507 34.5167 23.98C33.2021 24.8867 31.5587 25.34 29.5867 25.34ZM33.9047 14.358V13.1C33.9047 11.6267 33.5307 10.4933 32.7827 9.7C32.0574 8.90667 30.9921 8.51 29.5867 8.51C28.2041 8.51 27.1387 8.90667 26.3907 9.7C25.6427 10.4933 25.2687 11.6267 25.2687 13.1V14.086H34.1427L33.9047 14.358ZM53.7134 25V19.56H42.4934V14.766L52.3194 0.179999H55.6514L45.5534 15.412V16.772H53.7134V10.72H56.7734V25H53.7134ZM70.4962 25.34C69.0002 25.34 67.6855 25.0567 66.5522 24.49C65.4415 23.9233 64.5802 23.1073 63.9682 22.042C63.3562 20.954 63.0502 19.6733 63.0502 18.2V13.1C63.0502 11.604 63.3562 10.3233 63.9682 9.258C64.5802 8.19267 65.4415 7.37667 66.5522 6.81C67.6855 6.24333 69.0002 5.96 70.4962 5.96C72.6495 5.96 74.3835 6.538 75.6982 7.694C77.0128 8.85 77.7042 10.4253 77.7722 12.42H74.7122C74.6442 11.2187 74.2362 10.3007 73.4882 9.666C72.7628 9.00867 71.7655 8.68 70.4962 8.68C69.1588 8.68 68.0935 9.06533 67.3002 9.836C66.5068 10.584 66.1102 11.6607 66.1102 13.066V18.2C66.1102 19.6053 66.5068 20.6933 67.3002 21.464C68.0935 22.2347 69.1588 22.62 70.4962 22.62C71.7655 22.62 72.7628 22.2913 73.4882 21.634C74.2362 20.9767 74.6442 20.0587 74.7122 18.88H77.7722C77.7042 20.8747 77.0128 22.45 75.6982 23.606C74.3835 24.762 72.6495 25.34 70.4962 25.34ZM83.6749 25V0.179999H86.7349V6.3V9.87H87.3809L86.7349 10.584C86.7349 9.11067 87.1769 7.97733 88.0609 7.184C88.9449 6.368 90.1689 5.96 91.7329 5.96C93.6142 5.96 95.1102 6.538 96.2209 7.694C97.3315 8.85 97.8869 10.4253 97.8869 12.42V25H94.8269V12.76C94.8269 11.4227 94.4642 10.3913 93.7389 9.666C93.0362 8.918 92.0729 8.544 90.8489 8.544C89.5795 8.544 88.5709 8.94067 87.8229 9.734C87.0975 10.5273 86.7349 11.6493 86.7349 13.1V25H83.6749ZM111.134 25.34C109.66 25.34 108.368 25.0453 107.258 24.456C106.17 23.8667 105.32 23.0393 104.708 21.974C104.118 20.886 103.824 19.628 103.824 18.2V13.1C103.824 11.6493 104.118 10.3913 104.708 9.326C105.32 8.26067 106.17 7.43333 107.258 6.844C108.368 6.25467 109.66 5.96 111.134 5.96C112.607 5.96 113.888 6.25467 114.976 6.844C116.086 7.43333 116.936 8.26067 117.526 9.326C118.138 10.3913 118.444 11.6493 118.444 13.1V16.398H106.816V18.2C106.816 19.6733 107.19 20.8067 107.938 21.6C108.686 22.3707 109.751 22.756 111.134 22.756C112.312 22.756 113.264 22.552 113.99 22.144C114.715 21.7133 115.157 21.0787 115.316 20.24H118.376C118.172 21.804 117.401 23.0507 116.064 23.98C114.749 24.8867 113.106 25.34 111.134 25.34ZM115.452 14.358V13.1C115.452 11.6267 115.078 10.4933 114.33 9.7C113.604 8.90667 112.539 8.51 111.134 8.51C109.751 8.51 108.686 8.90667 107.938 9.7C107.19 10.4933 106.816 11.6267 106.816 13.1V14.086H115.69L115.452 14.358ZM125.094 25V6.3H128.086V9.87H128.8L127.814 12.08C127.814 10.0627 128.245 8.544 129.106 7.524C129.99 6.48133 131.294 5.96 133.016 5.96C134.988 5.96 136.552 6.58333 137.708 7.83C138.887 9.054 139.476 10.72 139.476 12.828V13.95H136.416V13.1C136.416 11.6267 136.054 10.5047 135.328 9.734C134.626 8.94067 133.617 8.544 132.302 8.544C131.01 8.544 129.99 8.94067 129.242 9.734C128.517 10.5273 128.154 11.6493 128.154 13.1V25H125.094Z" fill="url(#paint0_linear_549_2)"/>
<defs>
<linearGradient id="paint0_linear_549_2" x1="-1" y1="12.5" x2="145" y2="12.5" gradientUnits="userSpaceOnUse">
<stop offset="0.115385"/>
<stop offset="0.307692" stop-color="#004A80"/>
<stop offset="0.682692" stop-color="#0070BF"/>
<stop offset="1" stop-color="#0095FF"/>
</linearGradient>
</defs>
</svg>
